Simulation
nRows=38
nColumns=15
endheader
time  TH_x TH_y TH_z SC_y  SC_z  SC_x  AC_y  AC_z  AC_x  GH_y  GH_z  GH_yy  EL_x  PS_y
2.6548872180451126  0.000000  0.000000  0.000000  -21.098288049663623  11.848032674383607  16.138745068179613  54.78694680571093  13.085653061089596  11.052527859409548  32.61733881411604  63.110945898020326  -20.981039334467074  37.97625567226359  120.000000
2.695112781954887  0.000000  0.000000  0.000000  -21.225309076289143  12.061891424977386  16.60021178373756  54.92428242376894  12.815287749326101  11.225233575971444  32.59313738080494  63.364256440482436  -18.88303697668284  37.43618372351735  120.000000
2.7353383458646614  0.000000  0.000000  0.000000  -21.34860003879157  12.262574510152366  17.005572952648187  55.06706121261173  12.575869271054623  11.404732721901421  32.57479930018126  63.58005132023523  -16.819792148356683  36.91513869281469  120.000000
2.7755639097744362  0.000000  0.000000  0.000000  -21.466929989028344  12.44982418987185  17.36093678504158  55.2155406192091  12.364286376000935  11.588330647866213  32.567681021250216  63.76424217001921  -14.807590431368709  36.41687952489994  120.000000
2.8157894736842106  0.000000  0.000000  0.000000  -21.579186842612437  12.62311570563004  17.67184307524102  55.369280255141376  12.177832095655592  11.773109019052708  32.576251444258865  63.92107610493663  -12.86556105656591  35.945093675032496  120.000000
2.856015037593985  0.000000  0.000000  0.000000  -21.68432675744158  12.781722429136314  17.94312943362674  55.52686865564969  12.014166126427437  11.955709998926004  32.60368411817142  64.05295002771695  -11.015989024696694  35.50366226652683  120.000000
2.8962406015037594  0.000000  0.000000  0.000000  -21.781391421044667  12.924945670045405  18.178795663815734  55.68573073134385  11.871090234338258  12.132254934218942  32.65162602669579  64.16048722024591  -9.28411235253771  35.096991928924766  120.000000
2.936466165413534  0.000000  0.000000  0.000000  -21.869251707181604  13.051856384714359  18.381998007353364  55.84241011865722  11.74659177515526  12.29824080107079  32.72013809977759  64.24290008006575  -7.698373635352894  34.72973208590276  120.000000
2.976691729323308  0.000000  0.000000  0.000000  -21.946425254968858  13.16116448036839  18.55515435131489  55.99278103172051  11.638981005101037  12.448576029812234  32.80793278513335  64.29863115787019  -6.289299454691867  34.406396227877046  120.000000
3.0169172932330826  0.000000  0.000000  0.000000  -22.011130805322612  13.25150121856916  18.70004345327901  56.13213675770342  11.546776919033972  12.577883541693879  32.912795396216396  64.32588558581935  -5.08801591091266  34.131416306222015  120.000000
3.057142857142857  0.000000  0.000000  0.000000  -22.061408612884996  13.321474161192793  18.817914459246563  56.255565845240106  11.46860852609029  12.680786675893971  33.031963249618805  64.3227941235772  -4.126108922992954  33.9092510771613  120.000000
3.0973684210526313  0.000000  0.000000  0.000000  -22.09526624370072  13.369728263571089  18.90965572031421  56.35825281624855  11.40324258183587  12.752140033373239  33.16241705887865  64.28732869722043  -3.4357812079819223  33.74436536210805  120.000000
3.137593984962406  0.000000  0.000000  0.000000  -22.110838189322603  13.394992051386716  18.97595220862641  56.43574801103063  11.349656309246225  12.787236182722832  33.30084613197134  64.21699428948965  -3.050207070156203  33.64120697886483  120.000000
3.1778195488721805  0.000000  0.000000  0.000000  -22.10665874756188  13.396038373067825  19.01737567309956  56.484187125180775  11.30712511479124  12.781935495687776  33.44345458231734  64.1084008432474  -3.0038025105042463  33.60442882991084  120.000000
3.218045112781955  0.000000  0.000000  0.000000  -22.081949811390817  13.371951834588424  19.034383089640645  56.50022168693072  11.275269885903798  12.732918816218419  33.58587321465117  63.956829699544656  -3.331655455846383  33.6393024229583  120.000000
3.2582706766917293  0.000000  0.000000  0.000000  -22.036456042924797  13.321969445370666  19.02724507066421  56.48131918239582  11.25418504555216  12.637830727235182  33.72282013688051  63.75598494062804  -4.069231993161132  33.75175666383583  120.000000
3.2984962406015037  0.000000  0.000000  0.000000  -21.97039775842864  13.245039000788132  18.996125589011918  56.42595392098122  11.244691403293183  12.495166812838452  33.848366259222686  63.49838054664043  -5.249730630183921  33.94761844726863  120.000000
3.338721804511278  0.000000  0.000000  0.000000  -21.884986495429136  13.140457531467165  18.941119662563043  56.33343299582704  11.248260875629597  12.304608933883165  33.956910067524575  63.17633089265882  -6.89801795816922  34.23129786701848  120.000000
3.3789473684210525  0.000000  0.000000  0.000000  -21.782455505225183  13.008323549294598  18.862057993583125  56.20413325053892  11.266879681969751  12.06756300336568  34.044434965014645  62.78313167329875  -9.02476558681472  34.60323360663643  120.000000
3.419172932330827  0.000000  0.000000  0.000000  -21.66559961405564  12.849222973880849  18.758413997374483  56.04004102776411  11.303030848480498  11.787156770963726  34.109409357146916  62.31423150591414  -11.621225649496056  35.05720870793498  120.000000
3.4593984962406013  0.000000  0.000000  0.000000  -21.537734789439146  12.664452591031608  18.629252813280125  55.844572681038535  11.359112034300235  11.467893330632602  34.15293870932083  61.768058834123195  -14.656657325828354  35.58026678305626  120.000000
3.499624060150376  0.000000  0.000000  0.000000  -21.40248788895039  12.455902603868369  18.473226692806822  55.622315049496265  11.436892307191629  11.115041510392688  34.177959881460794  61.14620691986352  -18.081111044211276  36.15428760806213  120.000000
3.5398496240601505  0.000000  0.000000  0.000000  -21.263252932523272  12.22509572301585  18.288942386162958  55.37905416554723  11.537629510942777  10.733873879001049  34.187910348318944  60.45324731897977  -21.829646274082616  36.7573265219401  120.000000
3.580075187969925  0.000000  0.000000  0.000000  -21.123175216374214  11.972885118218251  18.075341197817632  55.12138270287227  11.66213482168436  10.329114377841897  34.185687995750705  59.69625521160506  -25.826216308293045  37.365403132499154  120.000000
3.6203007518796992  0.000000  0.000000  0.000000  -20.985142109877376  11.699346872742034  17.83289388679626  54.85659137135577  11.80931812868527  9.904088566730508  34.17307040535239  58.88400204493907  -29.988330022258193  37.95437737351439  120.000000
3.6605263157894736  0.000000  0.000000  0.000000  -20.85146346599463  11.403493583485977  17.564029199756828  54.593311007242335  11.975733005489907  9.459920981816653  34.150776401766464  58.026283975802656  -34.23071424989314  38.500363322194005  120.000000
3.700751879699248  0.000000  0.000000  0.000000  -20.723993570617246  11.084245335170381  17.271412926284572  54.34132873548809  12.15671428074466  8.996348894120688  34.11861713038758  57.133552145005524  -38.46695730221424  38.9798793767799  120.000000
3.7409774436090224  0.000000  0.000000  0.000000  -20.604532263833388  10.741157278830679  16.957472444420176  54.11115094570938  12.346181763403335  8.51234205358679  34.075222584059695  56.21697083272785  -42.60981468293355  39.36949732261979  120.000000
3.781203007518797  0.000000  0.000000  0.000000  -20.494896710654455  10.374620248940715  16.624169149906866  53.91365374780505  12.53668213695465  8.006502405562276  34.01761517721546  55.28852853903002  -46.57193903732952  39.64474693581208  120.000000
3.821428571428571  0.000000  0.000000  0.000000  -20.397207763892602  9.98630981283921  16.27055118328488  53.7586162220076  12.721330844905076  7.479445305421678  33.94095878059567  54.360967057746414  -50.26736154517455  39.779930108989745  120.000000
3.8616541353383456  0.000000  0.000000  0.000000  -20.314290877634477  9.578968362361367  15.890961507408027  53.65359568366488  12.896150283824227  6.935753219470381  33.83878503536813  53.44739906508197  -53.61433707748795  39.74949731415134  120.000000
3.9018796992481204  0.000000  0.000000  0.000000  -20.249070998680395  9.15612932535384  15.476430571694744  53.60340709974157  13.059821221006626  6.383592929776423  33.704009056344624  52.560227803827225  -56.540857377502064  39.53212676947801  120.000000
3.942105263157895  0.000000  0.000000  0.000000  -20.203992329219297  8.721607382623018  15.016822505034161  53.61012717177624  13.212746623757003  5.833469077677732  33.5307847275335  51.709726720241314  -58.991868132115876  39.11628383813847  120.000000
3.982330827067669  0.000000  0.000000  0.000000  -20.180833125478078  8.278780943928691  14.502452636395166  53.673252856685664  13.356696162853837  5.297227476472804  33.31630061856224  50.90316400112451  -60.93488850979266  38.503984027082836  120.000000
4.022556390977443  0.000000  0.000000  0.000000  -20.180185106766128  7.83079214443159  13.92556839043512  53.78916305634828  13.494281927420984  4.78733128558883  33.06148188313995  50.14441426700246  -62.362853881380616  37.71177887064944  120.000000
4.062781954887218  0.000000  0.000000  0.000000  -20.202048484848415  7.38080774665219  13.281338403248586  53.95087659487395  13.629049059527288  4.315957369712333  32.770829685197704  49.43425161497707  -63.293268845048765  36.76951446346564  120.000000
4.103007518796993  0.000000  0.000000  0.000000  -20.246231100614207  6.932517882959415  12.56860630234574  54.148335601968064  13.765192412720326  3.8940434738578182  32.451197993770215  48.77123360061558  -63.763103308975666  35.716902455049805  120.000000
4.143233082706767  0.000000  0.000000  0.000000  -20.31105075291945  6.490970070826057  11.789768596648488  54.36881634397442  13.907218232651521  3.5311339861531517  32.11052512052364  48.15239277191237  -63.82205007740994  34.59814555984419  120.000000
